<svg xmlns="http://www.w3.org/2000/svg" width="100" height="20" viewBox="0 0 100 20">
  <path id="logo-white" d="M6.392-29.821c2.75,0,4.758-1.622,4.758-4.008,0-2.366-1.892-3.282-3.647-4.084l-.975-.439c-1.56-.706-3.042-1.431-3.042-3.073,0-1.336,1.034-2.443,2.847-2.443a5.638,5.638,0,0,1,3.881,1.775l.312-1.069a8.758,8.758,0,0,0-3.978-1.011c-2.711,0-4.485,1.565-4.485,3.664,0,2.271,2.048,3.263,3.588,3.95l.975.42c1.443.649,3.12,1.469,3.12,3.3,0,1.565-1.287,2.71-3.179,2.71A6.113,6.113,0,0,1,2.2-32.034l-.351,1.2A11.874,11.874,0,0,0,6.392-29.821Zm7.449-15.115V-30.05h1.833V-45.508H15.6Zm3.92,8.3.351-.305a35.238,35.238,0,0,1,4.29-3.206v-.038H21.056A28.641,28.641,0,0,1,17.9-37.225l-1.716,1.45,6.182,6.145h.1v-2.424Zm14.1-3.55a21.393,21.393,0,0,1-1.7,5.534l-1.014,2.366-3.51-7.9H23.65l4.544,10.191-.644,1.527a2.991,2.991,0,0,1-2.75,1.927,3.3,3.3,0,0,1-.956-.134l-.117,1.088a4.183,4.183,0,0,0,4.193-2.863l2.574-6.069c1.053-2.481,1.677-4.027,2.5-5.668ZM46.173-29.821A6.742,6.742,0,0,0,52.1-33.141l-.234-.134A5.648,5.648,0,0,1,47.05-30.66c-3.14,0-5.5-2.481-5.5-6.7,0-3.721,1.95-6.508,4.934-6.508a5.3,5.3,0,0,1,4.446,2.786l.975-.859a7.186,7.186,0,0,0-5.324-2.233,6.927,6.927,0,0,0-7.215,7.29C39.367-32.588,42.273-29.821,46.173-29.821Zm12.851,0a5.11,5.11,0,0,0,5.324-5.344A4.927,4.927,0,0,0,59.2-40.412a5.126,5.126,0,0,0-5.324,5.363A4.911,4.911,0,0,0,59.024-29.821Zm.117-.267c-1.931,0-3.276-2.023-3.276-5.076,0-3.015,1.268-4.981,3.218-4.981,1.931,0,3.276,2.042,3.276,5.1C62.358-32.053,61.091-30.088,59.141-30.088ZM71.6-44.935a4.94,4.94,0,0,1,2.087.458l.137-.229a5.991,5.991,0,0,0-3.062-.878c-2.028,0-3.354,1.24-3.354,3.607v1.794h-1.5v.42h1.5v9.714h1.853v-9.714h3l.273-.42H69.262v-1.889C69.262-44.038,70.139-44.935,71.6-44.935Zm7.82,0a4.941,4.941,0,0,1,2.087.458l.136-.229a5.991,5.991,0,0,0-3.062-.878c-2.028,0-3.354,1.24-3.354,3.607v1.794h-1.5v.42h1.5v9.714h1.853v-9.714h3l.273-.42H77.081v-1.889C77.081-44.038,77.959-44.935,79.422-44.935Zm10.9,9.1c.039-2.691-1.4-4.58-4.212-4.58a5.122,5.122,0,0,0-5.246,5.458,4.785,4.785,0,0,0,4.856,5.134,5.232,5.232,0,0,0,4.485-2.519l-.234-.134a4.319,4.319,0,0,1-3.452,1.832c-2.106,0-3.686-1.679-3.686-4.847v-.344Zm-4.368-4.294c1.658,0,2.711,1.584,2.594,3.989H82.854C83.049-38.466,84.258-40.126,85.954-40.126Zm15.893,4.294c.039-2.691-1.4-4.58-4.212-4.58a5.122,5.122,0,0,0-5.246,5.458,4.785,4.785,0,0,0,4.856,5.134,5.232,5.232,0,0,0,4.485-2.519l-.234-.134a4.319,4.319,0,0,1-3.452,1.832c-2.106,0-3.686-1.679-3.686-4.847v-.344Zm-4.368-4.294c1.658,0,2.711,1.584,2.594,3.989H94.378C94.574-38.466,95.783-40.126,97.479-40.126Z" transform="translate(-1.848 45.584)" fill="#fff"/>
</svg>
