<svg xmlns="http://www.w3.org/2000/svg" width="160" height="32" viewBox="0 0 160 32">
  <path id="logo" d="M9.118-20.363c4.4,0,7.613-2.6,7.613-6.412,0-3.786-3.027-5.252-5.835-6.534l-1.56-.7c-2.5-1.13-4.867-2.29-4.867-4.916,0-2.137,1.654-3.908,4.555-3.908A9.021,9.021,0,0,1,15.233-40l.5-1.71a14.013,14.013,0,0,0-6.365-1.618c-4.337,0-7.176,2.5-7.176,5.863,0,3.634,3.276,5.221,5.741,6.321l1.56.672c2.309,1.038,4.992,2.351,4.992,5.282,0,2.5-2.059,4.336-5.086,4.336A9.781,9.781,0,0,1,2.41-23.9l-.562,1.924A19,19,0,0,0,9.118-20.363ZM21.037-44.546v23.817H23.97V-45.462h-.125Zm6.271,13.282.562-.489a56.383,56.383,0,0,1,6.864-5.13v-.061H32.581a45.827,45.827,0,0,1-5.055,4.733l-2.746,2.321,9.891,9.832h.156v-3.878Zm22.558-5.679a34.228,34.228,0,0,1-2.714,8.855L45.529-24.3,39.913-36.943H36.731L44-20.637l-1.03,2.443a4.786,4.786,0,0,1-4.4,3.084,5.282,5.282,0,0,1-1.529-.214l-.187,1.74c2.808,0,5.211-1.069,6.708-4.58l4.119-9.71c1.685-3.969,2.683-6.443,3.994-9.069Zm22.9,16.58a10.787,10.787,0,0,0,9.485-5.313l-.374-.214a9.037,9.037,0,0,1-7.707,4.183c-5.023,0-8.8-3.969-8.8-10.718,0-5.954,3.12-10.412,7.894-10.412,3.027,0,5.523,1.863,7.114,4.458l1.56-1.374a11.5,11.5,0,0,0-8.518-3.573c-6.583,0-11.544,4.55-11.544,11.664C61.879-24.79,66.528-20.363,72.768-20.363Zm20.561,0a8.176,8.176,0,0,0,8.518-8.55c0-5.191-3.495-8.4-8.237-8.4a8.2,8.2,0,0,0-8.518,8.58C85.092-23.538,88.587-20.363,93.329-20.363Zm.187-.427c-3.089,0-5.242-3.237-5.242-8.122,0-4.824,2.028-7.969,5.148-7.969,3.089,0,5.242,3.267,5.242,8.153C98.665-23.935,96.637-20.79,93.517-20.79Zm19.937-23.756a7.9,7.9,0,0,1,3.339.733l.218-.366a9.586,9.586,0,0,0-4.9-1.4c-3.245,0-5.367,1.985-5.367,5.771v2.87h-2.4v.672h2.4v15.542h2.964V-36.271h4.8l.437-.672H109.71v-3.023C109.71-43.111,111.114-44.546,113.454-44.546Zm12.512,0a7.9,7.9,0,0,1,3.339.733l.218-.366a9.586,9.586,0,0,0-4.9-1.4c-3.245,0-5.367,1.985-5.367,5.771v2.87h-2.4v.672h2.4v15.542h2.964V-36.271h4.8l.437-.672h-5.242v-3.023C122.221-43.111,123.626-44.546,125.966-44.546Zm17.441,14.565c.062-4.305-2.246-7.328-6.739-7.328-4.8,0-8.393,3.45-8.393,8.733,0,4.947,3.307,8.214,7.769,8.214a8.372,8.372,0,0,0,7.176-4.031l-.374-.214a6.911,6.911,0,0,1-5.523,2.931c-3.37,0-5.9-2.687-5.9-7.756v-.55Zm-6.989-6.87c2.652,0,4.337,2.534,4.15,6.382h-9.111C131.769-34.195,133.7-36.851,136.418-36.851Zm25.429,6.87c.062-4.305-2.246-7.328-6.739-7.328-4.8,0-8.393,3.45-8.393,8.733,0,4.947,3.307,8.214,7.769,8.214a8.372,8.372,0,0,0,7.176-4.031l-.374-.214a6.911,6.911,0,0,1-5.523,2.931c-3.37,0-5.9-2.687-5.9-7.756v-.55Zm-6.989-6.87c2.652,0,4.337,2.534,4.15,6.382H149.9C150.209-34.195,152.143-36.851,154.858-36.851Z" transform="translate(-1.848 45.584)" fill="#222"/>
</svg>
