<svg xmlns="http://www.w3.org/2000/svg" viewBox="0 0 49.53 9.27"><defs><style>.cls-1{fill:#fff;}</style></defs><g id="レイヤー_2" data-name="レイヤー 2"><g id="レイヤー_1-2" data-name="レイヤー 1"><path class="cls-1" d="M5.91,5.2a2.08,2.08,0,0,1,.61.64,1.86,1.86,0,0,1,.24,1,2,2,0,0,1-.26,1,2.07,2.07,0,0,1-.65.7A2.9,2.9,0,0,1,5,8.93a3.86,3.86,0,0,1-1,.14H0V8.65A2.93,2.93,0,0,0,.41,8.6,1.24,1.24,0,0,0,.8,8.51a.46.46,0,0,0,.25-.22.63.63,0,0,0,.08-.35V2a.78.78,0,0,0-.07-.35A.48.48,0,0,0,.8,1.37a1.57,1.57,0,0,0-.4-.14L0,1.17V.76H3.88a4.63,4.63,0,0,1,.85.08,2.89,2.89,0,0,1,.78.31,1.79,1.79,0,0,1,.57.56,1.66,1.66,0,0,1,.22.86,1.78,1.78,0,0,1-.16.78,1.69,1.69,0,0,1-.44.59,2.61,2.61,0,0,1-.62.39,3.76,3.76,0,0,1-.76.25v0a4.71,4.71,0,0,1,.8.18A2.78,2.78,0,0,1,5.91,5.2ZM4.5,3.94a1.56,1.56,0,0,0,.3-.55,3,3,0,0,0,.08-.71A1.49,1.49,0,0,0,4.51,1.6a1.58,1.58,0,0,0-1.18-.39H2.86l-.48,0v3.2h.74a2.47,2.47,0,0,0,.82-.13A1.28,1.28,0,0,0,4.5,3.94ZM5.31,6.6a1.64,1.64,0,0,0-.5-1.22A2,2,0,0,0,3.4,4.91h-1V7.86a.62.62,0,0,0,.3.56,1.59,1.59,0,0,0,.83.19A1.73,1.73,0,0,0,4.85,8.1,2.21,2.21,0,0,0,5.31,6.6Z"/><path class="cls-1" d="M10.42,9.07H7.6V8.68l.29,0,.25-.05a.37.37,0,0,0,.24-.18.59.59,0,0,0,.09-.34V1.39A.93.93,0,0,0,8.38,1,.76.76,0,0,0,8.14.7,1.43,1.43,0,0,0,7.75.57L7.3.5V.13L9.47,0l.09.09V8a.67.67,0,0,0,.07.33.46.46,0,0,0,.25.2,1.25,1.25,0,0,0,.25.09,1.27,1.27,0,0,0,.29,0Z"/><path class="cls-1" d="M17.34,9l-1.89.13L15.36,9V8.28h0L15,8.59a2.09,2.09,0,0,1-.4.3,2.31,2.31,0,0,1-.51.24,2.12,2.12,0,0,1-.7.09,1.39,1.39,0,0,1-1.16-.5,2.29,2.29,0,0,1-.4-1.46V4.5a.72.72,0,0,0-.08-.35.71.71,0,0,0-.24-.25.89.89,0,0,0-.26-.11l-.34,0V3.36l1.93-.14.09.08v4a1.35,1.35,0,0,0,.28.94.88.88,0,0,0,.67.32,1.72,1.72,0,0,0,.58-.1,1.85,1.85,0,0,0,.42-.24A1.73,1.73,0,0,0,15.17,8a1.19,1.19,0,0,0,.18-.25V4.46a.74.74,0,0,0-.08-.34A.82.82,0,0,0,15,3.86a.61.61,0,0,0-.31-.08l-.47,0V3.36l2.1-.14.09.08V7.89a.64.64,0,0,0,.09.34.83.83,0,0,0,.22.24.66.66,0,0,0,.26.08,2.69,2.69,0,0,0,.32,0Z"/><path class="cls-1" d="M22.84,7.71a3,3,0,0,1-1,1.1,2.42,2.42,0,0,1-1.4.41A2.93,2.93,0,0,1,19.24,9a2.5,2.5,0,0,1-.86-.67,2.74,2.74,0,0,1-.51-1,4.17,4.17,0,0,1-.16-1.19A3.77,3.77,0,0,1,17.88,5a3.21,3.21,0,0,1,.53-1,2.61,2.61,0,0,1,.83-.67,2.39,2.39,0,0,1,1.11-.25,2.7,2.7,0,0,1,1.08.2,1.84,1.84,0,0,1,.73.54,2.23,2.23,0,0,1,.41.78,3.65,3.65,0,0,1,.13,1V6H18.87A4.65,4.65,0,0,0,19,7a2.53,2.53,0,0,0,.34.82,1.64,1.64,0,0,0,.6.54,1.87,1.87,0,0,0,.88.19,1.63,1.63,0,0,0,.9-.24,2.5,2.5,0,0,0,.73-.88Zm-1.3-2.2a5.91,5.91,0,0,0-.05-.7,2.37,2.37,0,0,0-.18-.63,1.21,1.21,0,0,0-.37-.44,1,1,0,0,0-.6-.17,1.26,1.26,0,0,0-1,.52,2.42,2.42,0,0,0-.44,1.42Z"/><path class="cls-1" d="M30.55,9.27a3.59,3.59,0,0,1-2.63-1.14,4,4,0,0,1-.83-1.34A4.84,4.84,0,0,1,26.78,5a5.17,5.17,0,0,1,.3-1.81,4.35,4.35,0,0,1,.84-1.4,3.74,3.74,0,0,1,1.26-.9A3.87,3.87,0,0,1,30.73.57a3.57,3.57,0,0,1,1.12.16,4.16,4.16,0,0,1,.94.42L33,.76h.46l.06,3h-.48a9.52,9.52,0,0,0-.28-.94,4.3,4.3,0,0,0-.44-.86,2.19,2.19,0,0,0-.67-.62,1.72,1.72,0,0,0-.88-.23,2.36,2.36,0,0,0-1.06.25,2.42,2.42,0,0,0-.85.75,3.87,3.87,0,0,0-.53,1.21,6.34,6.34,0,0,0-.19,1.63,5.28,5.28,0,0,0,.2,1.47A3.77,3.77,0,0,0,29,7.55a2.83,2.83,0,0,0,.88.78A2.44,2.44,0,0,0,31,8.61a2.49,2.49,0,0,0,.87-.15,2.36,2.36,0,0,0,.69-.4,2.83,2.83,0,0,0,.51-.58,3.49,3.49,0,0,0,.37-.72l.44.21a3.6,3.6,0,0,1-1.34,1.77A3.61,3.61,0,0,1,30.55,9.27Z"/><path class="cls-1" d="M39.92,9l-.48.17a1.75,1.75,0,0,1-.48.06A1.09,1.09,0,0,1,38.24,9a.94.94,0,0,1-.35-.62h0A2.58,2.58,0,0,1,37,9,2.26,2.26,0,0,1,36,9.22a1.52,1.52,0,0,1-1.07-.4,1.37,1.37,0,0,1-.42-1,1.79,1.79,0,0,1,.1-.6,1.29,1.29,0,0,1,.28-.48,1.57,1.57,0,0,1,.39-.31,3.08,3.08,0,0,1,.45-.22c.17-.07.53-.19,1.07-.37a8.12,8.12,0,0,0,1.08-.42V4.8a2.52,2.52,0,0,0,0-.29,1.11,1.11,0,0,0-.14-.41,1.08,1.08,0,0,0-.33-.38,1,1,0,0,0-.6-.16,1.44,1.44,0,0,0-.51.09.84.84,0,0,0-.32.19,1.43,1.43,0,0,0,.06.34,2.37,2.37,0,0,1,0,.43.5.5,0,0,1-.18.37.77.77,0,0,1-.52.17.48.48,0,0,1-.43-.21A.84.84,0,0,1,35,4a1.92,1.92,0,0,1,.49-.44,2.93,2.93,0,0,1,.64-.28,2.69,2.69,0,0,1,.73-.11,4.33,4.33,0,0,1,.86.07,1.54,1.54,0,0,1,.67.29,1.35,1.35,0,0,1,.45.59A2.52,2.52,0,0,1,39,5c0,.56,0,1.06,0,1.49s0,.9,0,1.41A.75.75,0,0,0,39,8.3a.67.67,0,0,0,.24.23.63.63,0,0,0,.28.05h.39Zm-2-3.09c-.34.1-.63.19-.88.29a3.52,3.52,0,0,0-.7.35,1.71,1.71,0,0,0-.46.47,1.26,1.26,0,0,0-.17.65.92.92,0,0,0,.26.72.93.93,0,0,0,.64.23,1.39,1.39,0,0,0,.74-.2,2.24,2.24,0,0,0,.53-.48Z"/><path class="cls-1" d="M44.79.7a.67.67,0,0,1-.14.45.49.49,0,0,1-.42.18.66.66,0,0,1-.32-.08,1.21,1.21,0,0,1-.26-.2,1.54,1.54,0,0,1-.21-.29L43.27.49c-.27,0-.47.2-.61.55a4.91,4.91,0,0,0-.21,1.69v.59h1.48v.56H42.45V8a.65.65,0,0,0,.07.33.48.48,0,0,0,.25.19,1.52,1.52,0,0,0,.38.09,3.37,3.37,0,0,0,.4,0v.39h-3V8.68l.27,0A.85.85,0,0,0,41,8.61a.42.42,0,0,0,.25-.18.68.68,0,0,0,.08-.34V3.88H40.21V3.32h1.15V3A3.17,3.17,0,0,1,42,.82,2.11,2.11,0,0,1,43.75,0a1.23,1.23,0,0,1,.78.21A.58.58,0,0,1,44.79.7Z"/><path class="cls-1" d="M49.53,7.71a3,3,0,0,1-1,1.1,2.42,2.42,0,0,1-1.4.41A2.93,2.93,0,0,1,45.93,9a2.5,2.5,0,0,1-.86-.67,2.74,2.74,0,0,1-.51-1,4.17,4.17,0,0,1-.16-1.19A3.47,3.47,0,0,1,44.58,5a3,3,0,0,1,.52-1,2.61,2.61,0,0,1,.83-.67A2.39,2.39,0,0,1,47,3.13a2.7,2.7,0,0,1,1.08.2,2,2,0,0,1,.74.54,2.22,2.22,0,0,1,.4.78,3.65,3.65,0,0,1,.13,1V6H45.56a4.65,4.65,0,0,0,.11,1,2.53,2.53,0,0,0,.34.82,1.72,1.72,0,0,0,.6.54,1.87,1.87,0,0,0,.88.19,1.63,1.63,0,0,0,.9-.24,2.5,2.5,0,0,0,.73-.88Zm-1.3-2.2a4.35,4.35,0,0,0,0-.7A2.37,2.37,0,0,0,48,4.18a1.21,1.21,0,0,0-.37-.44,1,1,0,0,0-.6-.17,1.26,1.26,0,0,0-1,.52,2.42,2.42,0,0,0-.44,1.42Z"/></g></g></svg>