<svg xmlns="http://www.w3.org/2000/svg" width="87" height="11"><g data-name="グループ 2" fill="#fff"><path data-name="パス 13" d="M45.372 5.216a3.35 3.35 0 011.311.973 2.184 2.184 0 01.471 1.387 2.551 2.551 0 01-1.065 2.27 4.621 4.621 0 01-2.659.724h-3.55V.414h3.13a4.713 4.713 0 012.666.655 2.148 2.148 0 01.971 1.9 2.6 2.6 0 01-.333 1.332 2.478 2.478 0 01-.942.915zm-3.391-.649h1.279a1.175 1.175 0 00.9-.338 1.171 1.171 0 00.319-.835.912.912 0 00-.362-.78 1.645 1.645 0 00-1-.269h-1.13zm1.348 4.14a2.244 2.244 0 001.2-.283.933.933 0 00.456-.849q0-1.076-1.8-1.076h-1.2v2.208zm7.3-3.2a4.872 4.872 0 01.731-2.583 5.4 5.4 0 011.985-1.911A5.416 5.416 0 0156.06.304a5.416 5.416 0 012.717.711 5.518 5.518 0 012 1.911 4.8 4.8 0 01.746 2.58 4.779 4.779 0 01-.746 2.594 5.445 5.445 0 01-2 1.884 5.5 5.5 0 01-2.717.7 5.487 5.487 0 01-2.724-.7 5.346 5.346 0 01-1.976-1.883 4.849 4.849 0 01-.729-2.595zm2.173 0a3.134 3.134 0 00.442 1.628 3.246 3.246 0 001.2 1.18 3.342 3.342 0 001.688.435 3.17 3.17 0 001.637-.435 3.144 3.144 0 001.159-1.173 3.247 3.247 0 00.42-1.635 3.226 3.226 0 00-.435-1.656 3.223 3.223 0 00-1.181-1.18 3.236 3.236 0 00-1.659-.435 3.236 3.236 0 00-1.659.435 3.223 3.223 0 00-1.181 1.18 3.226 3.226 0 00-.428 1.655zM65.66.414h3.188a6.722 6.722 0 013.362.752 4.649 4.649 0 011.92 1.946 5.611 5.611 0 01.6 2.56 4.638 4.638 0 01-.724 2.58 4.785 4.785 0 01-1.949 1.718 6.022 6.022 0 01-2.688.6H65.66zm3.347 8.224a3.915 3.915 0 002.594-.8 2.836 2.836 0 00.956-2.3 3.187 3.187 0 00-.529-1.932 2.816 2.816 0 00-1.232-.994 3.634 3.634 0 00-1.326-.276h-1.71v6.306zm18-8.224l-4 7v3.16h-2.1v-3.16l-3.927-7h2.594l2.449 4.692L84.414.414z"/><path data-name="パス 14" d="M7.274.401v1.937H2.101V4.51H6.68v1.94H2.101v2.2h5.376v1.937H0V.401zm14.011 0v10.6h-.058l-7.462-6.435.043 6.019h-2.13V0h.087l7.448 6.531-.043-6.13zm13.432 9.16a2.861 2.861 0 01-.877.519 8.089 8.089 0 01-1.391.443 6.291 6.291 0 01-1.384.173 6.678 6.678 0 01-2.978-.63 4.718 4.718 0 01-1.978-1.743 4.693 4.693 0 01-.7-2.539 5.8 5.8 0 01.739-3.023A4.7 4.7 0 0128.133.907a6.129 6.129 0 012.753-.616 7.72 7.72 0 011.826.208 6.909 6.909 0 011.507.54l-.681 1.868a5.41 5.41 0 00-1.152-.408 5.122 5.122 0 00-1.221-.188 3.84 3.84 0 00-2.659.83 3.149 3.149 0 00-.92 2.463 2.965 2.965 0 00.449 1.64 2.906 2.906 0 001.253 1.072 4.3 4.3 0 001.833.374 3.145 3.145 0 001.463-.263V7.196h-1.84V5.259h3.97z"/></g></svg>