<svg xmlns="http://www.w3.org/2000/svg" width="107" height="21" viewBox="0 0 107 21">
  <g id="logo" transform="translate(-70.41 -25.672)">
    <path id="tart" d="M-36.958-11.228q0,.589.724.589v.589H-41.3v-.589a.634.634,0,0,0,.411-.147.536.536,0,0,0,.181-.442V-24.254h-5.428a1.126,1.126,0,0,0-.576.164.659.659,0,0,0-.28.622h-.592V-28.05h.592a.659.659,0,0,0,.28.622,1.126,1.126,0,0,0,.576.164H-31.53a1.126,1.126,0,0,0,.576-.164.659.659,0,0,0,.28-.622h.592v4.582h-.592a.659.659,0,0,0-.28-.622,1.126,1.126,0,0,0-.576-.164h-5.428Zm20.638-5.5-2.763-6.087-3.092,6.087Zm-12.4,6.087a.963.963,0,0,0,.674-.425,7.042,7.042,0,0,0,.477-.818l6.086-12.731q.23-.425.411-.785a1.434,1.434,0,0,0,.181-.622.482.482,0,0,0-.23-.458,1.941,1.941,0,0,0-.493-.2v-.589h5.559v.589a2.679,2.679,0,0,0-.461.18.477.477,0,0,0-.23.475,1.292,1.292,0,0,0,.115.524q.115.262.345.687l6.842,13.32A1.121,1.121,0,0,0-9-10.966a6.924,6.924,0,0,0,.641.327v.589h-5.79v-.589a.779.779,0,0,0,.329-.1.314.314,0,0,0,.2-.295,2.031,2.031,0,0,0-.263-.851l-1.25-2.422h-8.026l-1.184,2.324a2.739,2.739,0,0,0-.329.982q0,.36.625.36v.589h-4.671ZM4.91-19.606a9.075,9.075,0,0,0,1.974-.18,3.5,3.5,0,0,0,1.25-.507,1.9,1.9,0,0,0,.658-.769,2.34,2.34,0,0,0,.2-.965,2.34,2.34,0,0,0-.2-.965,1.9,1.9,0,0,0-.658-.769,3.5,3.5,0,0,0-1.25-.507,9.075,9.075,0,0,0-1.974-.18H-.781v4.844Zm.855-7.658a13.54,13.54,0,0,1,2.862.278,6.472,6.472,0,0,1,2.2.884,4.069,4.069,0,0,1,1.414,1.571,5.173,5.173,0,0,1,.493,2.373,4.2,4.2,0,0,1-1.283,3.305A6.916,6.916,0,0,1,8-17.315L12.377-11.1a.891.891,0,0,0,.543.393,2.823,2.823,0,0,0,.576.065v.589H7.344v-.589a1.214,1.214,0,0,0,.51-.1q.214-.1.214-.262a.74.74,0,0,0-.132-.376q-.132-.213-.395-.573L3.923-17.054h-4.7v5.825a.5.5,0,0,0,.214.442,1.45,1.45,0,0,0,.773.147v.589H-5.485v-.589q.954,0,.954-.589V-26.086q0-.589-.954-.589v-.589ZM27.542-11.228q0,.589.724.589v.589H23.2v-.589a.634.634,0,0,0,.411-.147.536.536,0,0,0,.181-.442V-24.254H18.364a1.126,1.126,0,0,0-.576.164.659.659,0,0,0-.28.622h-.592V-28.05h.592a.659.659,0,0,0,.28.622,1.126,1.126,0,0,0,.576.164H32.97a1.126,1.126,0,0,0,.576-.164.659.659,0,0,0,.28-.622h.592v4.582h-.592a.659.659,0,0,0-.28-.622,1.126,1.126,0,0,0-.576-.164H27.542Z" transform="translate(142.993 55.722)" fill="#212121"/>
    <path id="s" d="M6.606-19.11l.4.2a1.227,1.227,0,0,0,.16.628,2.834,2.834,0,0,0,1.1.922,11.291,11.291,0,0,0,1.876.8,16.59,16.59,0,0,0,2.216.569,11.447,11.447,0,0,0,2.076.216q.679,0,1.757-.1a10.612,10.612,0,0,0,2.116-.412,5.993,5.993,0,0,0,1.8-.864,1.71,1.71,0,0,0,.759-1.452,1.458,1.458,0,0,0-.7-1.335,5.168,5.168,0,0,0-1.837-.628,20.191,20.191,0,0,0-2.6-.255q-1.457-.059-2.974-.177a27.545,27.545,0,0,1-2.974-.393,8.324,8.324,0,0,1-2.6-.922,5.122,5.122,0,0,1-1.837-1.766A5.454,5.454,0,0,1,4.65-27a5.375,5.375,0,0,1,.579-2.394,5.84,5.84,0,0,1,1.777-2.08,9.855,9.855,0,0,1,3.034-1.472,14.62,14.62,0,0,1,4.312-.569,18.8,18.8,0,0,1,3.673.314,27.629,27.629,0,0,1,2.695.667q1.138.353,1.916.667a3.627,3.627,0,0,0,1.3.314,1.114,1.114,0,0,0,.8-.236l.479.314-2.755,4.907-.4-.157a2.14,2.14,0,0,0-.319-.9,3.391,3.391,0,0,0-1.058-.922,9.246,9.246,0,0,0-1.737-.8,14.331,14.331,0,0,0-2.156-.569,12.607,12.607,0,0,0-2.316-.216A12.538,12.538,0,0,0,12.654-30a8.674,8.674,0,0,0-1.7.412,3.757,3.757,0,0,0-1.258.726,1.448,1.448,0,0,0-.5,1.119,1.591,1.591,0,0,0,.7,1.413,5.141,5.141,0,0,0,1.837.707,17.556,17.556,0,0,0,2.6.314q1.457.079,2.974.2a24.632,24.632,0,0,1,2.974.412,8.687,8.687,0,0,1,2.6.942,5.179,5.179,0,0,1,1.836,1.747,5.268,5.268,0,0,1,.7,2.865,4.982,4.982,0,0,1-1.1,3.336,7.727,7.727,0,0,1-2.735,2.041,12.487,12.487,0,0,1-3.533,1,26.6,26.6,0,0,1-3.533.255,23.851,23.851,0,0,1-3.813-.255A14.441,14.441,0,0,1,8.143-13.4a17.275,17.275,0,0,1-1.617-.667,2.431,2.431,0,0,0-1.038-.294.666.666,0,0,0-.519.314l-.559-.314Z" transform="translate(66 59.188)" fill="#dd1b57"/>
  </g>
</svg>
