<svg xmlns="http://www.w3.org/2000/svg" width="107" height="21"><path d="M35.625 18.822q0 .589.724.589V20h-5.066v-.589a.634.634 0 00.411-.147.536.536 0 00.181-.442V5.796h-5.428a1.126 1.126 0 00-.576.164.659.659 0 00-.28.622h-.592V2h.592a.659.659 0 00.28.622 1.126 1.126 0 00.576.164h14.606a1.126 1.126 0 00.576-.164.659.659 0 00.28-.622h.592v4.582h-.592a.659.659 0 00-.28-.622 1.126 1.126 0 00-.576-.164h-5.428zm20.638-5.5L53.5 7.235l-3.092 6.087zm-12.4 6.087a.963.963 0 00.674-.425 7.042 7.042 0 00.477-.818L51.1 5.435q.23-.425.411-.785a1.434 1.434 0 00.181-.622.482.482 0 00-.23-.458 1.941 1.941 0 00-.493-.2v-.589h5.559v.589a2.679 2.679 0 00-.461.18.477.477 0 00-.23.475 1.292 1.292 0 00.115.524q.115.262.345.687l6.842 13.32a1.121 1.121 0 00.444.528 6.924 6.924 0 00.641.327V20h-5.79v-.589a.779.779 0 00.329-.1.314.314 0 00.2-.295 2.031 2.031 0 00-.263-.851l-1.25-2.422h-8.026l-1.184 2.324a2.739 2.739 0 00-.329.982q0 .36.625.36v.589h-4.671zm33.63-8.965a9.075 9.075 0 001.974-.18 3.5 3.5 0 001.25-.507 1.9 1.9 0 00.658-.769 2.34 2.34 0 00.2-.965 2.34 2.34 0 00-.2-.965 1.9 1.9 0 00-.658-.769 3.5 3.5 0 00-1.25-.507 9.075 9.075 0 00-1.974-.18h-5.691v4.844zm.855-7.658a13.54 13.54 0 012.862.278 6.472 6.472 0 012.2.884 4.069 4.069 0 011.414 1.571 5.173 5.173 0 01.493 2.373 4.2 4.2 0 01-1.283 3.305 6.916 6.916 0 01-3.451 1.538l4.377 6.215a.891.891 0 00.543.393 2.823 2.823 0 00.576.065v.589h-6.152v-.589a1.214 1.214 0 00.51-.1q.214-.1.214-.262a.74.74 0 00-.132-.376q-.132-.213-.395-.573l-3.618-5.101h-4.7v5.825a.5.5 0 00.214.442 1.45 1.45 0 00.773.147v.589h-5.695v-.589q.954 0 .954-.589V3.964q0-.589-.954-.589v-.589zm21.777 16.036q0 .589.724.589V20h-5.066v-.589a.634.634 0 00.411-.147.536.536 0 00.181-.442V5.796h-5.428a1.126 1.126 0 00-.576.164.659.659 0 00-.28.622h-.592V2h.592a.659.659 0 00.28.622 1.126 1.126 0 00.576.164h14.606a1.126 1.126 0 00.576-.164.659.659 0 00.28-.622h.592v4.582h-.592a.659.659 0 00-.28-.622 1.126 1.126 0 00-.576-.164h-5.428z" fill="#212121"/><path d="M2.196 14.406l.4.2a1.227 1.227 0 00.16.628 2.834 2.834 0 001.1.922 11.291 11.291 0 001.876.8 16.59 16.59 0 002.216.569 11.447 11.447 0 002.076.216q.679 0 1.757-.1a10.612 10.612 0 002.116-.412 5.993 5.993 0 001.8-.864 1.71 1.71 0 00.759-1.452 1.458 1.458 0 00-.7-1.335 5.168 5.168 0 00-1.837-.628 20.191 20.191 0 00-2.6-.255q-1.457-.059-2.974-.177a27.545 27.545 0 01-2.974-.393 8.324 8.324 0 01-2.6-.922A5.122 5.122 0 01.934 9.437 5.454 5.454 0 01.24 6.516a5.375 5.375 0 01.579-2.394 5.84 5.84 0 011.777-2.08A9.855 9.855 0 015.63.57 14.62 14.62 0 019.942.001a18.8 18.8 0 013.673.314 27.629 27.629 0 012.695.667q1.138.353 1.916.667a3.627 3.627 0 001.3.314 1.114 1.114 0 00.8-.236l.479.314-2.755 4.907-.4-.157a2.14 2.14 0 00-.319-.9 3.391 3.391 0 00-1.058-.922 9.246 9.246 0 00-1.737-.8A14.331 14.331 0 0012.38 3.6a12.607 12.607 0 00-2.316-.216 12.538 12.538 0 00-1.82.132 8.674 8.674 0 00-1.7.412 3.757 3.757 0 00-1.258.726 1.448 1.448 0 00-.5 1.119 1.591 1.591 0 00.7 1.413 5.141 5.141 0 001.837.707 17.556 17.556 0 002.6.314q1.457.079 2.974.2a24.632 24.632 0 012.974.412 8.687 8.687 0 012.6.942 5.179 5.179 0 011.836 1.747 5.268 5.268 0 01.7 2.865 4.982 4.982 0 01-1.1 3.336 7.727 7.727 0 01-2.735 2.041 12.487 12.487 0 01-3.533 1 26.6 26.6 0 01-3.533.255 23.851 23.851 0 01-3.813-.255 14.441 14.441 0 01-2.56-.634 17.275 17.275 0 01-1.617-.667 2.431 2.431 0 00-1.038-.294.666.666 0 00-.519.314L0 19.155z" fill="#dd1b57"/></svg>