<svg xmlns="http://www.w3.org/2000/svg" viewBox="0 0 49.53 9.27"><g data-name="レイヤー 2"><path d="M5.91 5.2a2.08 2.08 0 01.61.64 1.86 1.86 0 01.24 1 2 2 0 01-.26 1 2.07 2.07 0 01-.65.7 2.9 2.9 0 01-.85.39 3.86 3.86 0 01-1 .14H0v-.42a2.93 2.93 0 00.41-.05 1.24 1.24 0 00.39-.09.46.46 0 00.25-.22.63.63 0 00.08-.35V2a.78.78 0 00-.07-.35.48.48 0 00-.26-.28 1.57 1.57 0 00-.4-.14L0 1.17V.76h3.88a4.63 4.63 0 01.85.08 2.89 2.89 0 01.78.31 1.79 1.79 0 01.57.56 1.66 1.66 0 01.22.86 1.78 1.78 0 01-.16.78 1.69 1.69 0 01-.44.59 2.61 2.61 0 01-.62.39 3.76 3.76 0 01-.76.25 4.71 4.71 0 01.8.18 2.78 2.78 0 01.79.44zM4.5 3.94a1.56 1.56 0 00.3-.55 3 3 0 00.08-.71 1.49 1.49 0 00-.37-1.08 1.58 1.58 0 00-1.18-.39h-.95v3.2h.74a2.47 2.47 0 00.82-.13 1.28 1.28 0 00.56-.34zm.81 2.66a1.64 1.64 0 00-.5-1.22 2 2 0 00-1.41-.47h-1v2.95a.62.62 0 00.3.56 1.59 1.59 0 00.83.19 1.73 1.73 0 001.32-.51 2.21 2.21 0 00.46-1.5zm5.11 2.47H7.6v-.39h.29l.25-.05a.37.37 0 00.24-.18.59.59 0 00.09-.34V1.39A.93.93 0 008.38 1a.76.76 0 00-.24-.3 1.43 1.43 0 00-.39-.13L7.3.5V.13L9.47 0l.09.09V8a.67.67 0 00.07.33.46.46 0 00.25.2 1.25 1.25 0 00.25.09 1.27 1.27 0 00.29 0zM17.34 9l-1.89.13-.09-.13v-.72l-.36.31a2.09 2.09 0 01-.4.3 2.31 2.31 0 01-.51.24 2.12 2.12 0 01-.7.09 1.39 1.39 0 01-1.16-.5 2.29 2.29 0 01-.4-1.46V4.5a.72.72 0 00-.08-.35.71.71 0 00-.24-.25.89.89 0 00-.26-.11h-.34v-.43l1.93-.14.09.08v4a1.35 1.35 0 00.28.94.88.88 0 00.67.32 1.72 1.72 0 00.58-.1 1.85 1.85 0 00.42-.24 1.73 1.73 0 00.29-.22 1.19 1.19 0 00.18-.25V4.46a.74.74 0 00-.08-.34.82.82 0 00-.27-.26.61.61 0 00-.31-.08h-.47v-.42l2.1-.14.09.08v4.59a.64.64 0 00.09.34.83.83 0 00.22.24.66.66 0 00.26.08 2.69 2.69 0 00.32 0zm5.5-1.29a3 3 0 01-1 1.1 2.42 2.42 0 01-1.4.41 2.93 2.93 0 01-1.2-.22 2.5 2.5 0 01-.86-.67 2.74 2.74 0 01-.51-1 4.17 4.17 0 01-.16-1.19A3.77 3.77 0 0117.88 5a3.21 3.21 0 01.53-1 2.61 2.61 0 01.83-.67 2.39 2.39 0 011.11-.25 2.7 2.7 0 011.08.2 1.84 1.84 0 01.73.54 2.23 2.23 0 01.41.78 3.65 3.65 0 01.13 1V6h-3.83A4.65 4.65 0 0019 7a2.53 2.53 0 00.34.82 1.64 1.64 0 00.6.54 1.87 1.87 0 00.88.19 1.63 1.63 0 00.9-.24 2.5 2.5 0 00.73-.88zm-1.3-2.2a5.91 5.91 0 00-.05-.7 2.37 2.37 0 00-.18-.63 1.21 1.21 0 00-.37-.44 1 1 0 00-.6-.17 1.26 1.26 0 00-1 .52 2.42 2.42 0 00-.44 1.42zm9.01 3.76a3.59 3.59 0 01-2.63-1.14 4 4 0 01-.83-1.34A4.84 4.84 0 0126.78 5a5.17 5.17 0 01.3-1.81 4.35 4.35 0 01.84-1.4 3.74 3.74 0 011.26-.9 3.87 3.87 0 011.55-.32 3.57 3.57 0 011.12.16 4.16 4.16 0 01.94.42L33 .76h.46l.06 3h-.48a9.52 9.52 0 00-.28-.94 4.3 4.3 0 00-.44-.86 2.19 2.19 0 00-.67-.62 1.72 1.72 0 00-.88-.23 2.36 2.36 0 00-1.06.25 2.42 2.42 0 00-.85.75 3.87 3.87 0 00-.53 1.21 6.34 6.34 0 00-.19 1.63 5.28 5.28 0 00.2 1.47A3.77 3.77 0 0029 7.55a2.83 2.83 0 00.88.78 2.44 2.44 0 001.12.28 2.49 2.49 0 00.87-.15 2.36 2.36 0 00.69-.4 2.83 2.83 0 00.51-.58 3.49 3.49 0 00.37-.72l.44.21a3.6 3.6 0 01-1.34 1.77 3.61 3.61 0 01-1.99.53zM39.92 9l-.48.17a1.75 1.75 0 01-.48.06 1.09 1.09 0 01-.72-.23.94.94 0 01-.35-.62A2.58 2.58 0 0137 9a2.26 2.26 0 01-1 .22 1.52 1.52 0 01-1.07-.4 1.37 1.37 0 01-.42-1 1.79 1.79 0 01.1-.6 1.29 1.29 0 01.28-.48 1.57 1.57 0 01.39-.31 3.08 3.08 0 01.45-.22c.17-.07.53-.19 1.07-.37a8.12 8.12 0 001.08-.42V4.8a2.52 2.52 0 000-.29 1.11 1.11 0 00-.14-.41 1.08 1.08 0 00-.33-.38 1 1 0 00-.6-.16 1.44 1.44 0 00-.51.09.84.84 0 00-.32.19 1.43 1.43 0 00.06.34 2.37 2.37 0 010 .43.5.5 0 01-.18.37.77.77 0 01-.52.17.48.48 0 01-.43-.21A.84.84 0 0135 4a1.92 1.92 0 01.49-.44 2.93 2.93 0 01.64-.28 2.69 2.69 0 01.73-.11 4.33 4.33 0 01.86.07 1.54 1.54 0 01.67.29 1.35 1.35 0 01.45.59A2.52 2.52 0 0139 5v2.9a.75.75 0 000 .4.67.67 0 00.24.23.63.63 0 00.28.05h.39zm-2-3.09c-.34.1-.63.19-.88.29a3.52 3.52 0 00-.7.35 1.71 1.71 0 00-.46.47 1.26 1.26 0 00-.17.65.92.92 0 00.26.72.93.93 0 00.64.23 1.39 1.39 0 00.74-.2 2.24 2.24 0 00.53-.48zM44.79.7a.67.67 0 01-.14.45.49.49 0 01-.42.18.66.66 0 01-.32-.08 1.21 1.21 0 01-.26-.2 1.54 1.54 0 01-.21-.29l-.17-.27c-.27 0-.47.2-.61.55a4.91 4.91 0 00-.21 1.69v.59h1.48v.56h-1.48V8a.65.65 0 00.07.33.48.48 0 00.25.19 1.52 1.52 0 00.38.09 3.37 3.37 0 00.4 0V9h-3v-.32h.27a.85.85 0 00.18-.07.42.42 0 00.25-.18.68.68 0 00.08-.34V3.88h-1.12v-.56h1.15V3A3.17 3.17 0 0142 .82 2.11 2.11 0 0143.75 0a1.23 1.23 0 01.78.21.58.58 0 01.26.49zm4.74 7.01a3 3 0 01-1 1.1 2.42 2.42 0 01-1.4.41 2.93 2.93 0 01-1.2-.22 2.5 2.5 0 01-.86-.67 2.74 2.74 0 01-.51-1 4.17 4.17 0 01-.16-1.19A3.47 3.47 0 0144.58 5a3 3 0 01.52-1 2.61 2.61 0 01.83-.67 2.39 2.39 0 011.07-.2 2.7 2.7 0 011.08.2 2 2 0 01.74.54 2.22 2.22 0 01.4.78 3.65 3.65 0 01.13 1V6h-3.79a4.65 4.65 0 00.11 1 2.53 2.53 0 00.34.82 1.72 1.72 0 00.6.54 1.87 1.87 0 00.88.19 1.63 1.63 0 00.9-.24 2.5 2.5 0 00.73-.88zm-1.3-2.2a4.35 4.35 0 000-.7 2.37 2.37 0 00-.23-.63 1.21 1.21 0 00-.37-.44 1 1 0 00-.6-.17 1.26 1.26 0 00-1 .52 2.42 2.42 0 00-.44 1.42z" fill="#fff" data-name="レイヤー 1"/></g></svg>